<svg width="234" height="176" viewBox="0 0 234 176" fill="none" xmlns="http://www.w3.org/2000/svg">
<g clip-path="url(#clip0_30_12407)">
<g filter="url(#filter0_d_30_12407)">
<path d="M48.5856 29.7498C48.5856 27.4789 50.4265 25.638 52.6974 25.638H91.7591C94.0302 25.638 95.8709 27.4789 95.8709 29.7498V79.0909C95.8709 81.362 94.0302 83.2027 91.7591 83.2027H52.6974C50.4265 83.2027 48.5856 81.362 48.5856 79.0909V29.7498Z" fill="#EBEBEB"/>
</g>
<g filter="url(#filter1_d_30_12407)">
<path d="M24.5992 42.0853C24.5992 39.8145 26.4401 37.9736 28.711 37.9736H69.8287C72.0997 37.9736 73.9404 39.8145 73.9404 42.0853V66.7559C73.9404 69.0268 72.0997 70.8677 69.8287 70.8677H28.711C26.4401 70.8677 24.5992 69.0268 24.5992 66.7559V42.0853Z" fill="#FF2116"/>
<path d="M37.429 55.4807H35.8871V59.3838C35.8871 59.8977 35.855 60.3635 35.7907 60.7812C35.7265 61.1988 35.5619 61.5281 35.2968 61.7689C35.0398 62.0098 34.6182 62.1303 34.032 62.1303C33.4618 62.1303 33.0483 62.0098 32.7913 61.7689C32.5343 61.5199 32.3736 61.1907 32.3094 60.7812C32.2531 60.3635 32.2251 59.8977 32.2251 59.3838V48.0121C32.2251 47.4982 32.2531 47.0364 32.3094 46.6269C32.3736 46.2093 32.5343 45.88 32.7913 45.639C33.0483 45.3901 33.4618 45.2657 34.032 45.2657H38.0073C39.019 45.3138 39.9105 45.5227 40.6814 45.892C41.0188 46.0527 41.3481 46.2535 41.6693 46.4944C41.9905 46.7272 42.2755 47.0204 42.5245 47.3737C42.7815 47.7191 42.9823 48.1326 43.1268 48.6145C43.2794 49.0963 43.3557 49.6505 43.3557 50.2769C43.3557 51.1362 43.2192 51.8911 42.9462 52.5416C42.6811 53.1841 42.2956 53.7221 41.7897 54.1557C40.7618 55.0391 39.3082 55.4807 37.429 55.4807ZM35.8871 48.1086V52.6138H37.5254C37.9269 52.5898 38.2883 52.4933 38.6095 52.3247C38.9308 52.1561 39.1917 51.9071 39.3925 51.5779C39.5932 51.2405 39.6937 50.8069 39.6937 50.2769C39.6937 49.779 39.5932 49.3815 39.3925 49.0843C39.1997 48.7791 38.9589 48.5463 38.6697 48.3856C38.3887 48.2411 38.0474 48.1486 37.6458 48.1086H35.8871ZM46.9937 45.2657H50.4871C52.0049 45.2657 53.2376 45.631 54.1852 46.3619C54.6591 46.7313 55.0285 47.189 55.2935 47.7351C55.5585 48.2812 55.691 48.9196 55.691 49.6505V57.1191C55.691 57.7455 55.6227 58.2956 55.4862 58.7695C55.3497 59.2432 55.1731 59.6569 54.9562 60.0102C54.7313 60.3554 54.4784 60.6527 54.1973 60.9016C53.9162 61.1506 53.6311 61.3513 53.3419 61.5039C52.6674 61.8733 51.8845 62.0821 50.993 62.1303H46.9937C46.4155 62.1303 45.9979 62.0098 45.7409 61.7689C45.4839 61.5281 45.3233 61.1988 45.259 60.7812C45.1948 60.3635 45.1626 59.8897 45.1626 59.3597V48.0121C45.1626 47.4901 45.1948 47.0244 45.259 46.6148C45.3233 46.1972 45.4839 45.868 45.7409 45.627C45.9979 45.3861 46.4155 45.2657 46.9937 45.2657ZM50.3907 48.0844H48.8247V59.2633H50.3907C50.72 59.2553 51.0291 59.175 51.3183 59.0224C51.5913 58.8859 51.8122 58.6811 51.9808 58.408C52.1575 58.127 52.2458 57.7696 52.2458 57.3359V50.2287C52.2458 49.7548 52.1575 49.3613 51.9808 49.0481C51.8122 48.735 51.5913 48.5021 51.3183 48.3495C51.0453 48.1969 50.736 48.1086 50.3907 48.0844ZM60.2447 45.2657H64.9424C65.4242 45.2657 65.8737 45.3058 66.2917 45.3861C66.7173 45.4665 67.0586 45.6351 67.3156 45.892C67.5808 46.141 67.713 46.5265 67.713 47.0485C67.713 47.5705 67.5808 47.9599 67.3156 48.2169C67.0586 48.4659 66.7173 48.6305 66.2917 48.7109C65.8737 48.7911 65.4242 48.8313 64.9424 48.8313H62.0751V51.9633H63.5931C64.0748 51.9633 64.5251 51.9995 64.9424 52.0717C65.368 52.136 65.7092 52.2966 65.9662 52.5536C66.2314 52.8025 66.3637 53.2001 66.3637 53.7462C66.3637 54.2922 66.2355 54.6938 65.9786 54.9507C65.7216 55.1997 65.3803 55.3604 64.9547 55.4326C64.5367 55.4969 64.083 55.529 63.5931 55.529H62.0751V59.3597C62.0751 59.8817 62.0436 60.3515 61.9792 60.7691C61.9148 61.1866 61.7544 61.5199 61.4974 61.7689C61.2404 62.0098 60.8224 62.1303 60.2447 62.1303C59.6663 62.1303 59.2486 62.0098 58.9916 61.7689C58.7347 61.5281 58.574 61.1988 58.5098 60.7812C58.4455 60.3635 58.4134 59.8897 58.4134 59.3597V48.0363C58.4134 47.5142 58.4455 47.0444 58.5098 46.6269C58.574 46.2093 58.7347 45.88 58.9916 45.639C59.2486 45.3901 59.6663 45.2657 60.2447 45.2657Z" fill="white"/>
</g>
<g filter="url(#filter2_d_30_12407)">
<mask id="mask0_30_12407" style="mask-type:luminance" maskUnits="userSpaceOnUse" x="81" y="70" width="76" height="75">
<path d="M81.4795 75.5214C81.4795 72.5726 83.8828 70.1823 86.8474 70.1823H151.265C154.23 70.1823 156.634 72.5726 156.634 75.5214V139.592C156.634 142.54 154.23 144.931 151.265 144.931H86.8474C83.8828 144.931 81.4795 142.54 81.4795 139.592V75.5214Z" fill="white"/>
</mask>
<g mask="url(#mask0_30_12407)">
<path d="M81.4798 75.5214C81.4798 72.5726 83.8831 70.1823 86.8477 70.1823H151.265C154.23 70.1823 156.634 72.5726 156.634 75.5214V139.592C156.634 142.54 154.23 144.931 151.265 144.931H86.8477C83.8831 144.931 81.4798 142.54 81.4798 139.592V75.5214Z" fill="url(#paint0_linear_30_12407)"/>
<g filter="url(#filter3_d_30_12407)">
<path d="M137.537 111.331C139.634 109.247 143.032 109.247 145.128 111.331L190.679 156.636C192.775 158.721 192.775 162.101 190.679 164.187L145.128 209.492C143.032 211.576 139.634 211.576 137.537 209.492L91.9865 164.187C89.8901 162.101 89.8901 158.721 91.9865 156.636L137.537 111.331Z" fill="#E35CE6"/>
</g>
<g filter="url(#filter4_d_30_12407)">
<path d="M102.643 104.658C104.74 102.573 108.139 102.573 110.235 104.658L155.785 149.962C157.881 152.047 157.881 155.427 155.785 157.513L110.235 202.818C108.139 204.903 104.74 204.903 102.643 202.818L57.0931 157.513C54.9967 155.427 54.9967 152.047 57.0931 149.962L102.643 104.658Z" fill="#FA64FA"/>
</g>
<path d="M125.767 103.552C130.214 103.552 133.819 99.9665 133.819 95.5436C133.819 91.12 130.214 87.5345 125.767 87.5345C121.32 87.5345 117.715 91.12 117.715 95.5436C117.715 99.9665 121.32 103.552 125.767 103.552Z" fill="#FAEDFA"/>
</g>
</g>
<g filter="url(#filter5_d_30_12407)">
<path d="M113.688 20.5476C113.688 18.8174 115.1 17.4149 116.841 17.4149H146.794C148.535 17.4149 149.946 18.8174 149.946 20.5476V58.1409C149.946 59.8711 148.535 61.2737 146.794 61.2737H116.841C115.1 61.2737 113.688 59.8711 113.688 58.1409V20.5476Z" fill="url(#paint1_linear_30_12407)"/>
</g>
<g filter="url(#filter6_d_30_12407)">
<path d="M106.149 30.1353C106.149 28.4085 107.558 27.0087 109.295 27.0087H128.176C129.914 27.0087 131.323 28.4085 131.323 30.1353V48.8952C131.323 50.622 129.914 52.0219 128.176 52.0219H109.295C107.558 52.0219 106.149 50.622 106.149 48.8952V30.1353Z" fill="#1C60BF"/>
<path d="M118.819 32.6086C119.163 32.6086 119.461 32.7246 119.713 32.9567C119.965 33.1887 120.128 33.4757 120.202 33.8177L121.787 41.1275H122.1C122.359 39.9367 122.623 38.7214 122.893 37.4817C123.164 36.236 123.435 35.0147 123.705 33.8177C123.76 33.5857 123.843 33.375 123.954 33.1856C124.052 33.0269 124.187 32.8833 124.359 32.7552C124.537 32.6208 124.768 32.5536 125.051 32.5536C125.45 32.5536 125.764 32.6819 125.991 32.9383C126.225 33.1887 126.342 33.4635 126.342 33.7627C126.342 33.9277 126.329 34.0559 126.305 34.1475C126.299 34.1781 126.292 34.2085 126.286 34.2391C126.28 34.2635 126.274 34.2879 126.268 34.3124L123.742 44.2786C123.649 44.4924 123.527 44.6755 123.373 44.8282C123.244 44.9687 123.075 45.0969 122.866 45.2129C122.663 45.3229 122.408 45.3778 122.1 45.3778H121.787C121.48 45.3778 121.228 45.3229 121.031 45.2129C120.835 45.0969 120.678 44.9687 120.561 44.8282C120.426 44.6694 120.324 44.4863 120.257 44.2786L118.966 38.9108H118.653C118.555 39.3443 118.453 39.784 118.348 40.2298C118.244 40.6756 118.137 41.1306 118.026 41.5947C117.909 42.0587 117.798 42.5137 117.694 42.9595C117.59 43.4053 117.485 43.845 117.381 44.2786C117.295 44.5045 117.187 44.6877 117.058 44.8282C116.935 44.9687 116.775 45.0969 116.578 45.2129C116.388 45.3229 116.139 45.3778 115.832 45.3778H115.518C115.211 45.3778 114.95 45.3229 114.735 45.2129C114.526 45.0969 114.354 44.9687 114.218 44.8282C114.059 44.6694 113.932 44.4863 113.841 44.2786L111.352 34.3124C111.345 34.2879 111.339 34.2635 111.333 34.2391C111.327 34.2085 111.321 34.1781 111.315 34.1475C111.29 34.0559 111.278 33.9277 111.278 33.7627C111.278 33.4635 111.391 33.1887 111.619 32.9383C111.852 32.6819 112.169 32.5536 112.568 32.5536C112.851 32.5536 113.079 32.6208 113.251 32.7552C113.429 32.8833 113.567 33.0269 113.665 33.1856C113.776 33.375 113.859 33.5857 113.914 33.8177L115.518 41.1275H115.832C115.949 40.5657 116.075 39.9733 116.21 39.3505C116.351 38.7275 116.489 38.1016 116.624 37.4726C116.766 36.8375 116.905 36.2115 117.04 35.5948C117.175 34.978 117.307 34.3856 117.436 33.8177C117.522 33.4696 117.688 33.1826 117.934 32.9567C118.18 32.7246 118.475 32.6086 118.819 32.6086Z" fill="white"/>
</g>
<path d="M173.994 119.095C173.994 117.439 175.346 116.097 177.014 116.097H205.71C207.379 116.097 208.731 117.439 208.731 119.095V155.073C208.731 156.729 207.379 158.071 205.71 158.071H177.014C175.346 158.071 173.994 156.729 173.994 155.073V119.095Z" fill="url(#paint2_linear_30_12407)"/>
<g filter="url(#filter7_d_30_12407)">
<path d="M167.141 128.689C167.141 127.034 168.494 125.691 170.162 125.691H188.287C189.956 125.691 191.308 127.034 191.308 128.689V146.678C191.308 148.334 189.956 149.677 188.287 149.677H170.162C168.494 149.677 167.141 148.334 167.141 146.678V128.689Z" fill="#117B41"/>
<path d="M175.108 141.039L177.587 137.192V137.034L175.357 133.678C175.291 133.579 175.23 133.482 175.171 133.388C175.111 133.289 175.056 133.192 175.002 133.099C174.914 132.941 174.831 132.774 174.755 132.598C174.684 132.422 174.649 132.273 174.649 132.15C174.649 131.992 174.693 131.831 174.781 131.667C174.875 131.503 175.038 131.354 175.268 131.219C175.533 131.078 175.775 131.008 175.994 131.008C176.33 131.008 176.607 131.143 176.826 131.412C177.05 131.676 177.256 131.963 177.445 132.273L179.091 134.961H179.357L181.003 132.273C181.197 131.963 181.404 131.676 181.622 131.412C181.841 131.143 182.118 131.008 182.454 131.008C182.56 131.008 182.673 131.029 182.791 131.07C182.915 131.11 183.044 131.167 183.18 131.237C183.428 131.372 183.599 131.518 183.693 131.676C183.788 131.828 183.835 131.98 183.835 132.133C183.835 132.261 183.797 132.414 183.72 132.589C183.643 132.765 183.557 132.935 183.463 133.099C183.357 133.292 183.233 133.485 183.091 133.678L180.879 137.034V137.192L183.34 141.039C183.463 141.232 183.569 141.426 183.658 141.619C183.752 141.807 183.799 141.994 183.799 142.181C183.799 142.339 183.756 142.497 183.666 142.656C183.584 142.808 183.428 142.954 183.198 143.095C182.932 143.235 182.691 143.305 182.472 143.305C182.165 143.305 181.911 143.194 181.711 142.972C181.51 142.749 181.321 142.503 181.145 142.233L179.357 139.352H179.091L177.303 142.233C177.127 142.503 176.938 142.749 176.737 142.972C176.537 143.194 176.289 143.305 175.994 143.305C175.769 143.305 175.533 143.235 175.285 143.095C175.043 142.954 174.875 142.808 174.781 142.656C174.693 142.497 174.649 142.339 174.649 142.181C174.649 141.994 174.693 141.807 174.781 141.619C174.875 141.426 174.984 141.232 175.108 141.039Z" fill="white"/>
</g>
</g>
<defs>
<filter id="filter0_d_30_12407" x="47.215" y="25.638" width="50.0265" height="60.3059" filterUnits="userSpaceOnUse" color-interpolation-filters="sRGB">
<feFlood flood-opacity="0" result="BackgroundImageFix"/>
<feColorMatrix in="SourceAlpha" type="matrix" values="0 0 0 0 0 0 0 0 0 0 0 0 0 0 0 0 0 0 127 0" result="hardAlpha"/>
<feOffset dy="1.37059"/>
<feGaussianBlur stdDeviation="0.685294"/>
<feComposite in2="hardAlpha" operator="out"/>
<feColorMatrix type="matrix" values="0 0 0 0 0 0 0 0 0 0 0 0 0 0 0 0 0 0 0.1 0"/>
<feBlend mode="normal" in2="BackgroundImageFix" result="effect1_dropShadow_30_12407"/>
<feBlend mode="normal" in="SourceGraphic" in2="effect1_dropShadow_30_12407" result="shape"/>
</filter>
<filter id="filter1_d_30_12407" x="-19.2596" y="3.70886" width="137.059" height="120.612" filterUnits="userSpaceOnUse" color-interpolation-filters="sRGB">
<feFlood flood-opacity="0" result="BackgroundImageFix"/>
<feColorMatrix in="SourceAlpha" type="matrix" values="0 0 0 0 0 0 0 0 0 0 0 0 0 0 0 0 0 0 127 0" result="hardAlpha"/>
<feOffset dy="9.59412"/>
<feGaussianBlur stdDeviation="21.9294"/>
<feComposite in2="hardAlpha" operator="out"/>
<feColorMatrix type="matrix" values="0 0 0 0 0 0 0 0 0 0 0 0 0 0 0 0 0 0 0.07 0"/>
<feBlend mode="normal" in2="BackgroundImageFix" result="effect1_dropShadow_30_12407"/>
<feBlend mode="normal" in="SourceGraphic" in2="effect1_dropShadow_30_12407" result="shape"/>
</filter>
<filter id="filter2_d_30_12407" x="80.1089" y="70.1823" width="77.8953" height="77.4897" filterUnits="userSpaceOnUse" color-interpolation-filters="sRGB">
<feFlood flood-opacity="0" result="BackgroundImageFix"/>
<feColorMatrix in="SourceAlpha" type="matrix" values="0 0 0 0 0 0 0 0 0 0 0 0 0 0 0 0 0 0 127 0" result="hardAlpha"/>
<feOffset dy="1.37059"/>
<feGaussianBlur stdDeviation="0.685294"/>
<feComposite in2="hardAlpha" operator="out"/>
<feColorMatrix type="matrix" values="0 0 0 0 0 0 0 0 0 0 0 0 0 0 0 0 0 0 0.1 0"/>
<feBlend mode="normal" in2="BackgroundImageFix" result="effect1_dropShadow_30_12407"/>
<feBlend mode="normal" in="SourceGraphic" in2="effect1_dropShadow_30_12407" result="shape"/>
</filter>
<filter id="filter3_d_30_12407" x="89.0436" y="109.768" width="104.578" height="104.028" filterUnits="userSpaceOnUse" color-interpolation-filters="sRGB">
<feFlood flood-opacity="0" result="BackgroundImageFix"/>
<feColorMatrix in="SourceAlpha" type="matrix" values="0 0 0 0 0 0 0 0 0 0 0 0 0 0 0 0 0 0 127 0" result="hardAlpha"/>
<feOffset dy="1.37059"/>
<feGaussianBlur stdDeviation="0.685294"/>
<feComposite in2="hardAlpha" operator="out"/>
<feColorMatrix type="matrix" values="0 0 0 0 0 0 0 0 0 0 0 0 0 0 0 0 0 0 0.1 0"/>
<feBlend mode="normal" in2="BackgroundImageFix" result="effect1_dropShadow_30_12407"/>
<feBlend mode="normal" in="SourceGraphic" in2="effect1_dropShadow_30_12407" result="shape"/>
</filter>
<filter id="filter4_d_30_12407" x="54.1503" y="103.094" width="104.578" height="104.029" filterUnits="userSpaceOnUse" color-interpolation-filters="sRGB">
<feFlood flood-opacity="0" result="BackgroundImageFix"/>
<feColorMatrix in="SourceAlpha" type="matrix" values="0 0 0 0 0 0 0 0 0 0 0 0 0 0 0 0 0 0 127 0" result="hardAlpha"/>
<feOffset dy="1.37059"/>
<feGaussianBlur stdDeviation="0.685294"/>
<feComposite in2="hardAlpha" operator="out"/>
<feColorMatrix type="matrix" values="0 0 0 0 0 0 0 0 0 0 0 0 0 0 0 0 0 0 0.1 0"/>
<feBlend mode="normal" in2="BackgroundImageFix" result="effect1_dropShadow_30_12407"/>
<feBlend mode="normal" in="SourceGraphic" in2="effect1_dropShadow_30_12407" result="shape"/>
</filter>
<filter id="filter5_d_30_12407" x="112.317" y="17.4149" width="38.9994" height="46.6" filterUnits="userSpaceOnUse" color-interpolation-filters="sRGB">
<feFlood flood-opacity="0" result="BackgroundImageFix"/>
<feColorMatrix in="SourceAlpha" type="matrix" values="0 0 0 0 0 0 0 0 0 0 0 0 0 0 0 0 0 0 127 0" result="hardAlpha"/>
<feOffset dy="1.37059"/>
<feGaussianBlur stdDeviation="0.685294"/>
<feComposite in2="hardAlpha" operator="out"/>
<feColorMatrix type="matrix" values="0 0 0 0 0 0 0 0 0 0 0 0 0 0 0 0 0 0 0.1 0"/>
<feBlend mode="normal" in2="BackgroundImageFix" result="effect1_dropShadow_30_12407"/>
<feBlend mode="normal" in="SourceGraphic" in2="effect1_dropShadow_30_12407" result="shape"/>
</filter>
<filter id="filter6_d_30_12407" x="62.2898" y="-7.25604" width="112.892" height="112.731" filterUnits="userSpaceOnUse" color-interpolation-filters="sRGB">
<feFlood flood-opacity="0" result="BackgroundImageFix"/>
<feColorMatrix in="SourceAlpha" type="matrix" values="0 0 0 0 0 0 0 0 0 0 0 0 0 0 0 0 0 0 127 0" result="hardAlpha"/>
<feOffset dy="9.59412"/>
<feGaussianBlur stdDeviation="21.9294"/>
<feComposite in2="hardAlpha" operator="out"/>
<feColorMatrix type="matrix" values="0 0 0 0 0 0 0 0 0 0 0 0 0 0 0 0 0 0 0.07 0"/>
<feBlend mode="normal" in2="BackgroundImageFix" result="effect1_dropShadow_30_12407"/>
<feBlend mode="normal" in="SourceGraphic" in2="effect1_dropShadow_30_12407" result="shape"/>
</filter>
<filter id="filter7_d_30_12407" x="123.282" y="91.4265" width="111.885" height="111.703" filterUnits="userSpaceOnUse" color-interpolation-filters="sRGB">
<feFlood flood-opacity="0" result="BackgroundImageFix"/>
<feColorMatrix in="SourceAlpha" type="matrix" values="0 0 0 0 0 0 0 0 0 0 0 0 0 0 0 0 0 0 127 0" result="hardAlpha"/>
<feOffset dy="9.59412"/>
<feGaussianBlur stdDeviation="21.9294"/>
<feComposite in2="hardAlpha" operator="out"/>
<feColorMatrix type="matrix" values="0 0 0 0 0 0 0 0 0 0 0 0 0 0 0 0 0 0 0.07 0"/>
<feBlend mode="normal" in2="BackgroundImageFix" result="effect1_dropShadow_30_12407"/>
<feBlend mode="normal" in="SourceGraphic" in2="effect1_dropShadow_30_12407" result="shape"/>
</filter>
<linearGradient id="paint0_linear_30_12407" x1="156.634" y1="70.1823" x2="98.7102" y2="156.494" gradientUnits="userSpaceOnUse">
<stop stop-color="#CC38B8"/>
<stop offset="0.950599" stop-color="#A641EE"/>
</linearGradient>
<linearGradient id="paint1_linear_30_12407" x1="149.946" y1="17.4149" x2="113.965" y2="61.4999" gradientUnits="userSpaceOnUse">
<stop stop-color="#388DCC"/>
<stop offset="0.950599" stop-color="#41A5EE"/>
</linearGradient>
<linearGradient id="paint2_linear_30_12407" x1="191.362" y1="116.097" x2="191.362" y2="158.071" gradientUnits="userSpaceOnUse">
<stop stop-color="#33C481"/>
<stop offset="1" stop-color="#2BA66D"/>
</linearGradient>
<clipPath id="clip0_30_12407">
<rect width="233" height="174.065" fill="white" transform="translate(0.5 0.967651)"/>
</clipPath>
</defs>
</svg>
